<svg xmlns="http://www.w3.org/2000/svg" xmlns:svg="http://www.w3.org/2000/svg" style="enable-background:new 0 0 53 53" id="Capa_1" width="512" height="512" x="0" y="0" version="1.1" viewBox="0 0 53 53" xml:space="preserve"><metadata id="metadata47"/><g id="g10" transform="matrix(0.72033898,0,0,0.81505484,6.9618644,5.5747757)" style="fill:#696969;fill-opacity:1"><g id="g8" style="fill:#696969;fill-opacity:1"><path id="path2" d="m 2,13.5 h 49 c 1.104,0 2,-0.896 2,-2 0,-1.104 -0.896,-2 -2,-2 H 2 c -1.104,0 -2,0.896 -2,2 0,1.104 0.896,2 2,2 z" style="fill:#696969;fill-opacity:1"/><path id="path4" d="m 2,28.5 h 49 c 1.104,0 2,-0.896 2,-2 0,-1.104 -0.896,-2 -2,-2 H 2 c -1.104,0 -2,0.896 -2,2 0,1.104 0.896,2 2,2 z" style="fill:#696969;fill-opacity:1"/><path id="path6" d="m 2,43.5 h 49 c 1.104,0 2,-0.896 2,-2 0,-1.104 -0.896,-2 -2,-2 H 2 c -1.104,0 -2,0.896 -2,2 0,1.104 0.896,2 2,2 z" style="fill:#696969;fill-opacity:1"/></g></g></svg>