<?xml version="1.0" encoding="iso-8859-1"?>
<!-- Generator: Adobe Illustrator 19.0.0, SVG Export Plug-In . SVG Version: 6.00 Build 0)  -->
<svg version="1.1" id="Layer_1" xmlns="http://www.w3.org/2000/svg" xmlns:xlink="http://www.w3.org/1999/xlink" x="0px" y="0px"
	 viewBox="0 0 512 512" style="enable-background:new 0 0 512 512;" xml:space="preserve">
<path style="fill:#D68847;" d="M406.069,512H105.931c-15.007,0-26.483-11.476-26.483-26.483s11.476-26.483,26.483-26.483h300.138
	c15.007,0,26.483,11.476,26.483,26.483S421.076,512,406.069,512"/>
<g>
	<polygon style="fill:#ECBA16;" points="397.241,459.034 331.034,176.552 256,176.552 180.083,176.552 114.759,459.034 	"/>
	<path style="fill:#ECBA16;" d="M310.731,88.276l-17.655-75.034C291.31,5.297,284.248,0,276.303,0h-42.372
		c-7.945,0-15.007,5.297-16.772,13.241l-17.655,75.034H256H310.731z"/>
</g>
<g>
	<polygon style="fill:#F7F6DD;" points="331.034,176.552 310.731,88.276 256,88.276 199.503,88.276 180.083,176.552 256,176.552 	
		"/>
	<path style="fill:#F7F6DD;" d="M256,273.655h-98.869l-20.303,88.276H256h119.172l-20.303-88.276H256z"/>
</g>
<g>
</g>
<g>
</g>
<g>
</g>
<g>
</g>
<g>
</g>
<g>
</g>
<g>
</g>
<g>
</g>
<g>
</g>
<g>
</g>
<g>
</g>
<g>
</g>
<g>
</g>
<g>
</g>
<g>
</g>
</svg>
